<svg width="34" height="39" viewBox="0 0 34 39" fill="none" xmlns="http://www.w3.org/2000/svg">
<path d="M27.9489 20.6093C27.9312 17.4139 29.4054 15.0021 32.3895 13.2258C30.7198 10.8837 28.1976 9.59505 24.8672 9.34255C21.7144 9.09875 18.2685 11.1449 17.0074 11.1449C15.6752 11.1449 12.6201 9.42962 10.2222 9.42962C5.26651 9.50798 0 13.3042 0 21.0273C0 23.3085 0.426294 25.6652 1.27888 28.0973C2.41567 31.2927 6.51875 39.129 10.7995 38.9984C13.0375 38.9461 14.6183 37.4398 17.5313 37.4398C20.3555 37.4398 21.8209 38.9984 24.3165 38.9984C28.6328 38.9374 32.3451 31.8152 33.4286 28.611C27.6381 25.938 27.9489 20.7748 27.9489 20.6093ZM22.9222 6.31253C25.3467 3.49148 25.1247 0.922936 25.0537 0C22.9133 0.121897 20.4355 1.42794 19.0234 3.03872C17.4692 4.7627 16.5544 6.8959 16.7498 9.29901C19.0678 9.47315 21.1815 8.30642 22.9222 6.31253Z" fill="white"/>
</svg>
