<svg width="38" height="39" viewBox="0 0 38 39" fill="none" xmlns="http://www.w3.org/2000/svg">
<g clip-path="url(#clip0_1_468)">
<path d="M37.9999 19.9662C37.9999 18.6521 37.8732 17.2956 37.6621 16.0238H19.3799V23.5271H29.851C29.4288 25.9434 28.0354 28.063 25.9666 29.4195L32.2154 34.2945C35.8888 30.8608 37.9999 25.8586 37.9999 19.9662Z" fill="#4280EF"/>
<path d="M19.38 38.9576C24.6155 38.9576 29.0066 37.2195 32.2155 34.2521L25.9666 29.4195C24.2355 30.6065 21.9977 31.2848 19.38 31.2848C14.3133 31.2848 10.0488 27.8511 8.48663 23.2728L2.06885 28.2326C5.36218 34.8032 12.0333 38.9576 19.38 38.9576Z" fill="#34A353"/>
<path d="M8.48661 23.2304C7.68439 20.8141 7.68439 18.1858 8.48661 15.7695L2.06883 10.7673C-0.675613 16.2782 -0.675613 22.7641 2.06883 28.2325L8.48661 23.2304Z" fill="#F6B704"/>
<path d="M19.38 7.75757C22.1244 7.71518 24.8266 8.77496 26.8111 10.6826L32.3422 5.08692C28.8377 1.78039 24.1933 -4.07249e-05 19.38 0.0423506C12.0333 0.0423506 5.36218 4.1967 2.06885 10.7674L8.48663 15.7695C10.0488 11.1489 14.3133 7.75757 19.38 7.75757Z" fill="#E54335"/>
</g>
<defs>
<clipPath id="clip0_1_468">
<rect width="38" height="39" fill="white"/>
</clipPath>
</defs>
</svg>
