<svg width="14" height="18" viewBox="0 0 14 18" fill="none" xmlns="http://www.w3.org/2000/svg">
<path d="M3.71294 7.92567H8.88478C9.00515 7.92567 9.12435 7.94938 9.23557 7.99544C9.34678 8.04151 9.44784 8.10903 9.53296 8.19415C9.61808 8.27927 9.6856 8.38032 9.73166 8.49154C9.77773 8.60276 9.80144 8.72196 9.80144 8.84233C9.80144 8.96271 9.77773 9.08191 9.73166 9.19313C9.6856 9.30434 9.61808 9.40539 9.53296 9.49051C9.44784 9.57563 9.34678 9.64316 9.23557 9.68922C9.12435 9.73529 9.00515 9.759 8.88478 9.759H3.71294L4.74144 10.7875C4.91332 10.9595 5.00984 11.1927 5.00975 11.4359C5.00967 11.6791 4.91299 11.9122 4.74098 12.0841C4.56898 12.256 4.33574 12.3525 4.09258 12.3524C3.84941 12.3524 3.61624 12.2557 3.44436 12.0837L0.852025 9.49133C0.766467 9.40639 0.698563 9.30535 0.652225 9.19404C0.605887 9.08273 0.582031 8.96336 0.582031 8.84279C0.582031 8.72222 0.605887 8.60285 0.652225 8.49154C0.698563 8.38024 0.766467 8.2792 0.852025 8.19425L3.44344 5.60192C3.61532 5.42991 3.84849 5.33323 4.09166 5.33315C4.33482 5.33306 4.56806 5.42958 4.74007 5.60146C4.91207 5.77334 5.00875 6.00651 5.00884 6.24968C5.00892 6.49284 4.91241 6.72608 4.74052 6.89808L3.71294 7.92567ZM12.5001 0.75C12.7432 0.75 12.9764 0.846577 13.1483 1.01849C13.3202 1.19039 13.4168 1.42355 13.4168 1.66667V16.3333C13.4168 16.5764 13.3202 16.8096 13.1483 16.9815C12.9764 17.1534 12.7432 17.25 12.5001 17.25C12.257 17.25 12.0238 17.1534 11.8519 16.9815C11.68 16.8096 11.5834 16.5764 11.5834 16.3333V1.66667C11.5834 1.42355 11.68 1.19039 11.8519 1.01849C12.0238 0.846577 12.257 0.75 12.5001 0.75V0.75Z" fill="#F8A00E"/>
</svg>
