<svg width="290" height="288" viewBox="0 0 290 288" fill="none" xmlns="http://www.w3.org/2000/svg">
<path fill-rule="evenodd" clip-rule="evenodd" d="M7.85194 -339.186C13.8513 -374.019 23.2938 -408.33 36.1431 -441.563L408.921 -768.46C443.547 -776.859 478.797 -781.74 514.116 -783.139L7.85194 -339.186ZM143.313 116.668C156.739 131.13 170.791 144.688 185.391 157.337L983.203 -542.28C972.569 -558.406 960.962 -574.109 948.377 -589.309L143.313 116.668ZM290.36 228.341C272.26 219.027 254.601 208.625 237.483 197.141L1015.86 -485.437C1025.01 -466.965 1033.02 -448.099 1039.89 -428.938L290.36 228.341ZM355.627 256.591C377.519 264.379 399.838 270.712 422.43 275.579L1069.48 -291.83C1067.6 -314.864 1064.24 -337.819 1059.38 -360.54L355.627 256.591ZM598.812 283.959C568.311 287.553 537.594 288.52 507.023 286.881L1069.64 -206.485C1067.27 -175.962 1062.3 -145.634 1054.75 -115.864L598.812 283.959ZM736.47 248.728C790.727 226.788 842.286 195.511 888.776 154.743C935.266 113.975 973.008 66.9422 1001.85 16.014L736.47 248.728ZM904.516 -636.331L102.421 67.0429C90.7289 51.0015 80.0487 34.4848 70.3752 17.5759L859.658 -674.562C875.159 -662.763 890.139 -650.018 904.516 -636.331ZM41.0031 -42.1511L804.278 -711.482C786.021 -722.066 767.248 -731.495 748.072 -739.763L20.3051 -101.569C25.9973 -81.4775 32.8942 -61.6345 41.0031 -42.1511ZM5.14592 -173.76C1.77611 -198.019 0.076973 -222.443 0.0365806 -246.848L606.684 -778.829C630.875 -775.602 654.868 -770.728 678.479 -764.219L5.14592 -173.76Z" fill="#F8A00E"/>
</svg>
