<svg width="56" height="63" viewBox="0 0 56 63" fill="none" xmlns="http://www.w3.org/2000/svg">
<path d="M41.9173 -4.43335H55.9226V66.6036H45.267L14.8226 23.1688V66.6036H0.817383V-4.43335H11.463L41.9173 38.8409V-4.43335Z" fill="#D4D4D2"/>
<path fill-rule="evenodd" clip-rule="evenodd" d="M7.01125 4.12877V1.05896H9.04088V4.12877H7.01125ZM48.6186 4.12877V1.05896H50.6482V4.12877H48.6186ZM7.01125 16.408V10.2684H9.04088V16.408H7.01125ZM48.6186 16.408V10.2684H50.6482V16.408H48.6186ZM7.01125 28.6873V22.5476H9.04088V28.6873H7.01125ZM48.6186 28.6873V22.5476H50.6482V28.6873H48.6186ZM7.01125 40.9665V34.8269H9.04088V40.9665H7.01125ZM48.6186 40.9665V34.8269H50.6482V40.9665H48.6186ZM7.01125 53.2457V47.1061H9.04088V53.2457H7.01125ZM48.6186 53.2457V47.1061H50.6482V53.2457H48.6186ZM7.01125 62.4552V59.3854H9.04088V62.4552H7.01125ZM48.6186 62.4552V59.3854H50.6482V62.4552H48.6186Z" fill="#797A7B"/>
</svg>
