<svg width="21" height="21" viewBox="0 0 21 21" fill="none" xmlns="http://www.w3.org/2000/svg">
<path d="M16.5986 19.25H4.34863C1.72363 19.25 1.72363 18.0687 1.72363 16.625V15.75C1.72363 15.2687 2.11738 14.875 2.59863 14.875H18.3486C18.8299 14.875 19.2236 15.2687 19.2236 15.75V16.625C19.2236 18.0687 19.2236 19.25 16.5986 19.25Z" stroke="#F8A00E" stroke-width="1.5" stroke-linecap="round" stroke-linejoin="round"/>
<path d="M18.1301 11.375V14.875H2.86133V11.375C2.86133 8.015 5.23258 5.20625 8.39133 4.5325C8.86383 4.4275 9.35383 4.375 9.86133 4.375H11.1301C11.6376 4.375 12.1363 4.4275 12.6088 4.5325C15.7676 5.215 18.1301 8.015 18.1301 11.375Z" stroke="#F8A00E" stroke-width="1.5" stroke-linecap="round" stroke-linejoin="round"/>
<path d="M12.6875 3.9375C12.6875 4.1475 12.6612 4.34 12.6087 4.5325C12.1362 4.4275 11.6375 4.375 11.13 4.375H9.86125C9.35375 4.375 8.86375 4.4275 8.39125 4.5325C8.33875 4.34 8.3125 4.1475 8.3125 3.9375C8.3125 2.73 9.2925 1.75 10.5 1.75C11.7075 1.75 12.6875 2.73 12.6875 3.9375Z" stroke="#F8A00E" stroke-width="1.5" stroke-linecap="round" stroke-linejoin="round"/>
<path d="M13.125 9.625H7.875" stroke="#F8A00E" stroke-width="1.5" stroke-linecap="round" stroke-linejoin="round"/>
</svg>
