<svg width="70" height="74" viewBox="0 0 70 74" fill="none" xmlns="http://www.w3.org/2000/svg">
<path d="M28.1434 13.6562V34.664H42.5549C45.193 34.664 47.4585 33.6333 49.3534 31.568C51.2463 29.5047 52.1957 27.0192 52.1957 24.1095C52.1957 21.2019 51.2463 18.7302 49.3534 16.7006C47.4585 14.671 45.193 13.6562 42.5549 13.6562H28.1434ZM53.1074 71.6036L38.7494 46.9428H28.1434V71.6036H14.1401V0.56665H42.5549C49.1155 0.56665 54.697 2.86584 59.2994 7.46619C63.8977 12.0685 66.1989 17.6143 66.1989 24.1095C66.1989 28.5077 64.9462 32.5828 62.4449 36.3388C59.9415 40.0928 56.6275 42.9173 52.5009 44.8102L68.2285 71.6036H53.1074Z" fill="#DAD9D8"/>
<path fill-rule="evenodd" clip-rule="evenodd" d="M19.5583 10.1435V7.07373H21.588V10.1435H19.5583ZM19.5583 22.4228V16.2832H21.588V22.4228H19.5583ZM19.5583 34.702V28.5624H21.588V34.702H19.5583ZM19.5583 46.9813V40.8417H21.588V46.9813H19.5583ZM19.5583 59.2605V53.1209H21.588V59.2605H19.5583ZM19.5583 68.47V65.4001H21.588V68.47H19.5583Z" fill="#797A7B"/>
</svg>
