<svg width="198" height="76" viewBox="0 0 198 76" fill="none" xmlns="http://www.w3.org/2000/svg">
<path d="M43.3404 41.6169H54.1901L48.627 25.8263L43.3404 41.6169ZM59.1508 55.6952L56.7005 48.738H40.8643L38.5518 55.6952H30.3459L43.8384 17.049H53.2553L66.8554 55.6952H59.1508Z" fill="#DAD9D8"/>
<path d="M174.485 41.6169H185.335L179.772 25.8274L174.485 41.6169ZM190.295 55.6952L187.845 48.7391H172.009L169.696 55.6952H161.49L174.983 17.049H184.4L198 55.6952H190.295Z" fill="#D4D4D2"/>
<path d="M7.59918 24.1701V35.5989H15.4199C16.8516 35.5989 18.081 35.0382 19.1093 33.9146C20.1365 32.7921 20.6517 31.4399 20.6517 29.857C20.6517 28.2751 20.1365 26.9305 19.1093 25.8263C18.081 24.7222 16.8516 24.1701 15.4199 24.1701H7.59918ZM21.1465 55.6952L13.3548 42.279H7.59918V55.6952H0V17.049H15.4199C18.9802 17.049 22.0091 18.2998 24.5067 20.8025C27.0021 23.3063 28.2509 26.3234 28.2509 29.857C28.2509 32.2498 27.5711 34.4667 26.2137 36.5101C24.8552 38.5524 23.0568 40.089 20.8173 41.1188L29.3523 55.6952H21.1465Z" fill="#DAD9D8"/>
<path fill-rule="evenodd" clip-rule="evenodd" d="M2.94043 22.2591V20.589H4.04185V22.2591H2.94043ZM2.94043 28.9394V25.5992H4.04185V28.9394H2.94043ZM2.94043 35.6196V32.2795H4.04185V35.6196H2.94043ZM2.94043 42.2999V38.9598H4.04185V42.2999H2.94043ZM2.94043 48.9802V45.64H4.04185V48.9802H2.94043ZM2.94043 53.9904V52.3203H4.04185V53.9904H2.94043Z" fill="#797A7B"/>
<path d="M150.199 17.049H157.799V55.6952H152.017L135.496 32.0654V55.6952H127.895V17.049H133.672L150.199 40.5915V17.049Z" fill="#D4D4D2"/>
<path fill-rule="evenodd" clip-rule="evenodd" d="M131.256 21.707V20.0369H132.358V21.707H131.256ZM153.836 21.707V20.0369H154.937V21.707H153.836ZM131.256 28.3873V25.0471H132.358V28.3873H131.256ZM153.836 28.3873V25.0471H154.937V28.3873H153.836ZM131.256 35.0676V31.7274H132.358V35.0676H131.256ZM153.836 35.0676V31.7274H154.937V35.0676H153.836ZM131.256 41.7478V38.4077H132.358V41.7478H131.256ZM153.836 41.7478V38.4077H154.937V41.7478H153.836ZM131.256 48.4281V45.088H132.358V48.4281H131.256ZM153.836 48.4281V45.088H154.937V48.4281H153.836ZM131.256 53.4383V51.7682H132.358V53.4383H131.256ZM153.836 53.4383V51.7682H154.937V53.4383H153.836Z" fill="#797A7B"/>
<path d="M108.127 39.36H88.3579C87.6889 39.3827 87.0274 39.3363 86.3702 39.2209C85.7141 39.1056 85.1203 38.8813 84.5911 38.5459C84.0609 38.2117 83.6285 37.7437 83.295 37.1431C82.9605 36.5424 82.7938 35.7812 82.7938 34.8571V29.5572C82.7938 28.4487 83.053 27.4567 83.5715 26.579C84.0899 25.7012 84.7514 24.899 85.5581 24.1711C86.3648 23.4444 87.2576 22.7683 88.2364 22.145C89.2152 21.5218 90.1596 20.9157 91.0706 20.327C91.9806 19.7382 92.8034 19.1441 93.5413 18.5424C94.2781 17.9429 94.8084 17.2959 95.131 16.6036C95.315 16.2349 98.801 17.0069 99.0882 17.0069C103.729 17.0069 99.3259 18.7397 99.9326 18.7397C103.096 18.7397 96.5476 18.8088 96.5476 19.7555C96.5476 20.6796 96.4035 21.7126 96.1152 22.8556C95.827 23.9986 95.3612 25.2052 94.7159 26.4744C94.0705 27.7446 93.196 29.003 92.0903 30.2506H113.239C113.792 30.2506 114.305 30.3541 114.777 30.5622C115.248 30.7692 115.67 31.0582 116.038 31.4281C116.407 31.7979 116.695 32.2249 116.902 32.7091C117.109 33.1943 117.213 33.7141 117.213 34.2683V51.6634C117.213 52.2177 117.109 52.7309 116.902 53.2043C116.695 53.6777 116.407 54.0993 116.038 54.4692C115.67 54.8379 115.249 55.1269 114.777 55.335C114.305 55.5421 113.793 55.6467 113.24 55.6467H83.0423C81.2686 55.6003 79.8122 55.2595 78.6721 54.6244C77.5319 53.9893 76.68 53.1817 76.1153 52.2004C75.5506 51.2181 75.2635 50.1387 75.2516 48.9612C75.2398 47.7837 75.4872 46.6288 75.9949 45.4977C76.3401 44.7354 76.6273 44.2275 76.8586 43.9741C77.0888 43.7196 77.3189 43.8123 77.5491 44.2512C77.8718 44.8518 78.4182 45.3069 79.1905 45.6185C79.9617 45.9301 80.8028 46.1555 81.7128 46.2946C82.6228 46.4326 83.5381 46.5081 84.4599 46.5199C85.3806 46.5318 86.1518 46.5372 86.7746 46.5372H108.127V39.36Z" fill="#F8A00E"/>
<path d="M103.439 75.7979H85.0032C82.4142 75.7979 80.3157 73.6942 80.3157 71.0987V57.3083C80.3157 54.714 82.4142 52.6102 85.0032 52.6102H103.439C106.028 52.6102 108.127 54.714 108.127 57.3083V71.0987C108.127 73.6942 106.028 75.7979 103.439 75.7979Z" fill="#F8A00E"/>
<path d="M108.065 72.9005C108.132 72.8477 108.179 72.7733 108.127 72.6881V46.6202L107.971 46.6547C107.849 46.6752 107.76 46.7809 107.576 46.9049V72.7323C107.615 72.9523 107.874 73.0687 108.038 72.9231C108.047 72.9156 108.057 72.907 108.065 72.9005ZM80.591 73.3135V46.7777C80.591 46.7194 80.5663 46.6731 80.5361 46.6731L80.3156 46.4304C80.193 46.4304 80.0403 46.2698 80.0403 46.5027L80.0769 72.4854C80.0779 72.8315 80.2705 73.1485 80.577 73.307L80.591 73.3135Z" fill="#F79110"/>
<path d="M93.5327 46.5372H94.3588V48.1935H93.5327V46.5372ZM94.3588 51.782H93.5327V55.3706H94.3588V51.782ZM94.3588 58.6832H93.5327V62.2717H94.3588V58.6832ZM94.3588 75.6092V72.7614H93.5327V75.4873C93.8081 75.5186 94.0834 75.5596 94.3588 75.6092ZM94.3588 65.8603H93.5327V69.4489H94.3588V65.8603Z" fill="white"/>
<path d="M100.8 21.4926L91.3748 17.1104L103.949 0L105.707 0.81735L100.8 21.4926Z" fill="#F68828"/>
<path d="M102.186 23.1004L89.2561 17.0889L89.6229 16.2963L102.553 22.3068L102.186 23.1004Z" fill="#F68828"/>
<path d="M101.457 18.7279L93.0574 14.8223L93.7662 13.8583L101.732 17.5622L101.457 18.7279ZM101.973 16.5497L94.3825 13.0204L95.0892 12.0554L102.251 15.3851L101.973 16.5497Z" fill="white"/>
</svg>
