<svg width="255" height="219" viewBox="0 0 255 219" fill="none" xmlns="http://www.w3.org/2000/svg">
<mask id="mask0_303_952" style="mask-type:alpha" maskUnits="userSpaceOnUse" x="0" y="0" width="255" height="219">
<path fill-rule="evenodd" clip-rule="evenodd" d="M255 0H0V193.182C0 206.933 57.0837 218.081 127.5 218.081C197.916 218.081 255 206.933 255 193.182V0Z" fill="#D9D9D9"/>
</mask>
<g mask="url(#mask0_303_952)">
<path d="M149.056 88.2782H114.369C113.195 88.3178 112.034 88.2366 110.881 88.0347C109.73 87.8327 108.688 87.4402 107.759 86.8532C106.829 86.2682 106.07 85.4491 105.485 84.3978C104.898 83.3466 104.606 82.0141 104.606 80.3967V71.1205C104.606 69.1803 105.061 67.444 105.97 65.9077C106.88 64.3714 108.041 62.9673 109.456 61.6933C110.872 60.4213 112.438 59.2379 114.156 58.147C115.873 57.0562 117.53 55.9955 119.129 54.965C120.725 53.9345 122.169 52.8946 123.464 51.8415C124.757 50.7922 125.687 49.6598 126.253 48.4481C126.576 47.8026 132.693 49.154 133.197 49.154C141.341 49.154 133.614 52.1869 134.678 52.1869C140.229 52.1869 128.739 52.3077 128.739 53.9647C128.739 55.5822 128.486 57.3902 127.98 59.3908C127.474 61.3914 126.657 63.5033 125.525 65.7246C124.392 67.9479 122.858 70.1504 120.918 72.3341H158.026C158.996 72.3341 159.897 72.5152 160.725 72.8795C161.552 73.2419 162.292 73.7477 162.937 74.395C163.585 75.0424 164.09 75.7897 164.455 76.6371C164.817 77.4864 165 78.3961 165 79.3662V109.813C165 110.783 164.817 111.681 164.455 112.509C164.09 113.338 163.585 114.076 162.937 114.723C162.292 115.369 161.554 115.875 160.725 116.239C159.897 116.601 158.998 116.784 158.028 116.784H105.042C101.929 116.703 99.3741 116.107 97.3735 114.995C95.3729 113.883 93.8782 112.47 92.8873 110.752C91.8965 109.033 91.3926 107.144 91.3718 105.083C91.351 103.022 91.7851 101.001 92.6759 99.0208C93.2818 97.6865 93.7857 96.7975 94.1915 96.354C94.5954 95.9086 94.9992 96.0709 95.4031 96.8391C95.9693 97.8903 96.9281 98.6867 98.2832 99.2322C99.6364 99.7776 101.112 100.172 102.709 100.416C104.306 100.657 105.912 100.789 107.529 100.81C109.145 100.831 110.498 100.84 111.591 100.84H149.056V88.2782Z" fill="#F8A00E"/>
<path d="M140.831 152.055H108.483C103.94 152.055 100.258 148.372 100.258 143.83V119.693C100.258 115.152 103.94 111.47 108.483 111.47H140.831C145.374 111.47 149.056 115.152 149.056 119.693V143.83C149.056 148.372 145.374 152.055 140.831 152.055Z" fill="#F8A00E"/>
<path d="M148.948 146.983C149.065 146.891 149.148 146.761 149.056 146.612V100.986L148.782 101.046C148.569 101.082 148.412 101.267 148.089 101.484V146.689C148.157 147.074 148.612 147.278 148.901 147.023C148.916 147.01 148.933 146.995 148.948 146.983ZM100.74 147.706V101.261C100.74 101.159 100.697 101.078 100.644 101.078L100.257 100.653C100.042 100.653 99.7739 100.372 99.7739 100.78L99.8381 146.257C99.84 146.863 100.178 147.417 100.716 147.695L100.74 147.706Z" fill="#F79110"/>
<path d="M123.449 100.84H124.898V103.739H123.449V100.84ZM124.898 110.02H123.449V116.301H124.898V110.02ZM124.898 122.099H123.449V128.38H124.898V122.099ZM124.898 151.724V146.74H123.449V151.511C123.932 151.566 124.415 151.637 124.898 151.724ZM124.898 134.661H123.449V140.942H124.898V134.661Z" fill="white"/>
<path d="M136.201 57.0052L119.662 49.3351L141.725 19.3871L144.811 20.8177L136.201 57.0052Z" fill="#F68828"/>
<path d="M138.633 59.8192L115.945 49.2973L116.589 47.9102L139.276 58.4301L138.633 59.8192Z" fill="#F68828"/>
<path d="M137.352 52.1661L122.614 45.3302L123.858 43.6429L137.836 50.1259L137.352 52.1661ZM138.258 48.3537L124.939 42.1765L126.179 40.4873L138.745 46.3154L138.258 48.3537Z" fill="white"/>
</g>
</svg>
